Coordinates
version=1
nRows=11
nColumns=40
inDegrees=yes

Units are S.I. units (second, meters, Newtons, ...)
Angles are in degrees.

endheader
time	pelvis_tilt	pelvis_list	pelvis_rotation	pelvis_tx	pelvis_ty	pelvis_tz	hip_flexion_r	hip_adduction_r	hip_rotation_r	knee_angle_r	knee_angle_r_beta	ankle_angle_r	subtalar_angle_r	mtp_angle_r	hip_flexion_l	hip_adduction_l	hip_rotation_l	knee_angle_l	knee_angle_l_beta	ankle_angle_l	subtalar_angle_l	mtp_angle_l	lumbar_extension	lumbar_bending	lumbar_rotation	arm_flex_r	arm_add_r	arm_rot_r	elbow_flex_r	pro_sup_r	wrist_flex_r	wrist_dev_r	arm_flex_l	arm_add_l	arm_rot_l	elbow_flex_l	pro_sup_l	wrist_flex_l	wrist_dev_l
     27.27000000	     -5.74653770	     -7.55180369	      3.80053947	      1.04906169	      0.92863598	      0.49489349	     14.18032408	      4.70375049	    -19.92807291	     14.71246684	     14.71246684	      8.21939516	      3.11576057	     -2.41355834	     31.89713223	    -15.16492586	      2.66636154	     68.74130671	     68.74130671	      9.76234502	    -18.54252258	     11.92243696	    -11.05892479	      6.24802896	      5.26926849	      4.71929932	    -14.93712428	     -1.96304154	     44.23030406	     45.63023750	      0.00000000	      0.00000000	     11.50759911	    -12.29320113	      1.93526590	     62.12545660	     46.47215223	      0.00000000	      0.00000000
     27.28164286	     -5.84162716	     -7.44233534	      4.05152605	      1.04652630	      0.92871201	      0.49501478	     13.77958466	      4.65275626	    -19.90875591	     14.56954791	     14.56954791	      8.60180426	      2.95714245	     -2.51959902	     33.89965753	    -14.83214432	      3.04224494	     68.27052505	     68.27052505	      9.78376693	    -18.61328846	     11.94329760	    -11.20845491	      5.96640668	      5.33980987	      7.28795685	    -15.28349769	     -2.19110685	     45.55392846	     45.60750835	      0.00000000	      0.00000000	      9.65188044	    -11.92575013	      2.32858601	     60.41985184	     46.40990252	      0.00000000	      0.00000000
     27.29328571	     -5.89958495	     -7.32271644	      4.37523368	      1.04399878	      0.92877260	      0.49503809	     13.30535183	      4.62098660	    -19.78322603	     14.33215164	     14.33215164	      8.86202754	      2.49435350	     -2.65055343	     35.76688923	    -14.38219864	      3.50242363	     67.63985764	     67.63985764	      9.96561029	    -18.64221008	     12.46558481	    -11.31589600	      5.73930865	      5.12748137	      9.69040316	    -15.59386036	     -1.68249004	     47.86766443	     45.51257164	      0.00000000	      0.00000000	      8.95699027	    -11.23262547	      2.01103029	     55.00832461	     46.40477363	      0.00000000	      0.00000000
     27.30492857	     -5.93730572	     -7.25454418	      4.66526850	      1.04161224	      0.92872797	      0.49504984	     12.79777253	      4.63436269	    -19.76791854	     14.08757695	     14.08757695	      9.21629798	      2.31078321	     -2.72045071	     37.45010612	    -14.01548179	      3.87514254	     66.74260388	     66.74260388	      9.92383620	    -18.69816052	     12.69541959	    -11.50949483	      5.54059966	      4.75825295	     12.36660592	    -15.67917239	     -1.86971177	     49.68707939	     45.47026903	      0.00000000	      0.00000000	      7.21476561	    -11.09612683	      2.26215148	     52.67691675	     46.35029545	      0.00000000	      0.00000000
     27.31657143	     -5.95633760	     -7.17371827	      4.94615935	      1.03928429	      0.92864974	      0.49491638	     12.25848562	      4.64625135	    -19.68340729	     13.81103816	     13.81103816	      9.53999435	      2.02694241	     -2.80417744	     38.94732287	    -13.60255350	      4.20355523	     65.58448448	     65.58448448	      9.93314399	    -18.75264929	     13.15198381	    -11.72058922	      5.34833935	      4.52561167	     14.89600894	    -15.86944625	     -1.84366402	     51.59509953	     45.41519153	      0.00000000	      0.00000000	      5.95965459	    -10.68801212	      2.33464371	     49.36444602	     46.30856900	      0.00000000	      0.00000000
     27.32821429	     -5.98830536	     -7.12284093	      5.18825491	      1.03706594	      0.92843514	      0.49464697	     11.71790493	      4.69865958	    -19.51437133	     13.49738379	     13.49738379	      9.81951908	      1.68703000	     -3.07464543	     40.32209418	    -13.17715065	      4.55129331	     64.20452616	     64.20452616	     10.12557021	    -18.76718328	     14.19813219	    -11.83533289	      5.21455897	      5.16191782	     16.67582100	    -16.79894671	     -1.37398869	     54.06735951	     45.32319478	      0.00000000	      0.00000000	      6.15156996	     -9.50644640	      1.78693531	     43.50947375	     46.33495446	      0.00000000	      0.00000000
     27.33985714	     -5.99710438	     -7.08700634	      5.48279099	      1.03494152	      0.92814086	      0.49418604	     11.14298272	      4.74080584	    -19.48326447	     13.19583351	     13.19583351	     10.15763035	      1.49815421	     -3.17024123	     41.49293776	    -12.71775313	      4.91427786	     62.47773799	     62.47773799	     10.03399387	    -18.78352392	     14.50292490	    -12.03979189	      5.07240301	      4.83949779	     19.21332442	    -16.81692655	     -1.64626995	     56.00430637	     45.28121277	      0.00000000	      0.00000000	      4.54302443	     -9.30082009	      1.90888690	     41.38931867	     46.29014249	      0.00000000	      0.00000000
     27.35150000	     -6.00902784	     -7.07279421	      5.74876153	      1.03292416	      0.92774863	      0.49359031	     10.55207567	      4.81754116	    -19.39493262	     12.84965585	     12.84965585	     10.49897017	      1.28391087	     -3.31186899	     42.48482660	    -12.25018552	      5.28875219	     60.46366216	     60.46366216	      9.95062803	    -18.73901379	     14.80435937	    -12.19406018	      4.96466440	      4.59009286	     21.66263302	    -16.87783113	     -1.73977396	     58.09609289	     45.22656201	      0.00000000	      0.00000000	      3.21975156	     -8.99611806	      2.01030831	     38.78632354	     46.24809487	      0.00000000	      0.00000000
     27.36314286	     -6.06617326	     -7.08379736	      5.98415901	      1.03099387	      0.92722106	      0.49278242	      9.98697684	      4.91404824	    -19.25257979	     12.46103866	     12.46103866	     10.68583394	      0.96871531	     -3.83336770	     43.32888706	    -11.75656599	      5.69931027	     58.15096632	     58.15096632	      9.79789009	    -18.64226025	     14.81721218	    -12.23515234	      4.93052863	      5.27145928	     23.13747106	    -18.01838910	     -1.32993442	     61.37958148	     45.11862007	      0.00000000	      0.00000000	      3.45245688	     -8.01568045	      1.69099766	     33.30384807	     46.26661255	      0.00000000	      0.00000000
     27.37478571	     -6.10060287	     -7.07734178	      6.22162302	      1.02924137	      0.92669017	      0.49181721	      9.40042849	      4.96320719	    -19.20920953	     12.13728248	     12.13728248	     11.04718481	      0.87516089	     -3.97223334	     43.92257485	    -11.19409497	      6.16737474	     55.54022133	     55.54022133	      9.68127869	    -18.45466405	     14.94341074	    -12.32165640	      4.83615078	      4.97902797	     25.60425200	    -17.91450025	     -1.66634071	     63.49614105	     45.07394875	      0.00000000	      0.00000000	      1.82959444	     -7.82014264	      1.76555300	     31.73922606	     46.22613900	      0.00000000	      0.00000000
     27.38642857	     -6.12909789	     -7.12879386	      6.47412331	      1.02767686	      0.92601913	      0.49061398	      8.76792389	      5.07522075	    -19.15442478	     11.73900723	     11.73900723	     11.29321114	      0.73787424	     -4.48367734	     44.29529352	    -10.66685680	      6.68619425	     52.63779449	     52.63779449	      9.30729379	    -18.11005059	     13.87867125	    -12.39810488	      4.84834972	      5.26588043	     27.14321105	    -18.66414122	     -1.62474841	     67.10378904	     44.97783494	      0.00000000	      0.00000000	      1.22908556	     -7.26848971	      1.67915171	     28.19550438	     46.21970458	      0.00000000	      0.00000000
